<?xml version="1.0" encoding="UTF-8" standalone="no"?>
<svg width="150px" height="34px" viewBox="0 0 150 34" version="1.1" xmlns="http://www.w3.org/2000/svg" xmlns:xlink="http://www.w3.org/1999/xlink">
    <!-- Generator: Sketch 49.1 (51147) - http://www.bohemiancoding.com/sketch -->
    <title>Logo Copy</title>
    <desc>Created with Sketch.</desc>
    <defs>
        <polygon id="path-1" points="0.9975 0.1932 14.6475 0.1932 14.6475 19 0.9975 19"></polygon>
        <polygon id="path-3" points="0.4496 0.1932 14.0996 0.1932 14.0996 19 0.4496 19"></polygon>
        <polygon id="path-5" points="0.908136952 0.688 21.3054 0.688 21.3054 7.61163025 0.908136952 7.61163025"></polygon>
    </defs>
    <g id="Page-1" stroke="none" stroke-width="1" fill="none" fill-rule="evenodd">
        <g id="Movil" transform="translate(-33.000000, -19.000000)">
            <g id="Logo-Copy" transform="translate(33.000000, 18.000000)">
                <path d="M6.3171,14.357 L4.6071,25.795 L6.9901,25.795 C7.8851,25.795 8.7051,25.408 9.4451,24.633 C10.1871,23.86 10.6511,22.875 10.8381,21.677 L11.3161,18.451 C11.4951,17.204 11.3391,16.211 10.8511,15.469 C10.3621,14.728 9.6451,14.357 8.7001,14.357 L6.3171,14.357 Z M9.1771,11.18 C11.1891,11.18 12.8171,11.869 14.0581,13.245 C15.3011,14.622 15.7671,16.366 15.4581,18.475 L14.9821,21.677 C14.6391,23.901 13.6711,25.672 12.0801,26.993 C10.4871,28.312 8.6301,28.972 6.5121,28.972 L0.0001,28.972 L2.6641,11.18 L9.1771,11.18 Z" id="Fill-1" fill="#FFFFFF"></path>
                <path d="M22.8757,12.6832 L18.7337,12.6832 L19.1477,9.9092 L23.2917,9.9092 L22.8757,12.6832 Z M20.4327,28.9722 L16.2897,28.9722 L18.2697,15.7502 L22.4117,15.7502 L20.4327,28.9722 Z" id="Fill-3" fill="#FFFFFF"></path>
                <g id="Group-7" transform="translate(22.000000, 15.312000)">
                    <mask id="mask-2" fill="white">
                        <use xlink:href="#path-1"></use>
                    </mask>
                    <g id="Clip-6"></g>
                    <path d="M5.4705,7.3302 C5.2995,8.4382 5.3255,9.2832 5.5495,9.8662 C5.7745,10.4482 6.2645,10.7392 7.0225,10.7392 C7.4625,10.7392 7.8555,10.6662 8.2015,10.5192 C8.5475,10.3732 8.8425,10.1522 9.0875,9.8592 L9.9185,4.3492 C9.7635,4.0302 9.5395,3.7882 9.2465,3.6212 C8.9525,3.4542 8.5865,3.3712 8.1465,3.3712 C7.4465,3.3712 6.8715,3.7152 6.4235,4.4032 C5.9755,5.0922 5.6695,5.9822 5.5075,7.0732 L5.4705,7.3302 Z M1.3895,7.0732 C1.7065,4.9392 2.4035,3.2592 3.4785,2.0322 C4.5545,0.8072 5.9185,0.1932 7.5725,0.1932 C8.2475,0.1932 8.8245,0.3642 9.3015,0.7072 C9.7785,1.0492 10.1665,1.5342 10.4685,2.1612 L11.0065,0.4382 L14.6475,0.4382 L12.6925,13.5142 C12.4155,15.3222 11.6165,16.6882 10.2975,17.6132 C8.9775,18.5382 7.2585,19.0002 5.1405,19.0002 C4.4805,19.0002 3.7805,18.9062 3.0385,18.7192 C2.2975,18.5312 1.6165,18.2792 0.9975,17.9622 L2.1715,14.9062 C2.7245,15.1672 3.2625,15.3602 3.7835,15.4872 C4.3055,15.6132 4.9155,15.6762 5.6165,15.6762 C6.4635,15.6762 7.1365,15.4992 7.6335,15.1442 C8.1305,14.7902 8.4355,14.2382 8.5495,13.4892 L8.6965,12.4752 C8.2475,12.9472 7.7595,13.3062 7.2305,13.5512 C6.6995,13.7952 6.1215,13.9162 5.4945,13.9162 C3.9315,13.9162 2.7735,13.3062 2.0255,12.0842 C1.2755,10.8622 1.0505,9.2772 1.3525,7.3302 L1.3895,7.0732 Z" id="Fill-5" fill="#FFFFFF" mask="url(#mask-2)"></path>
                </g>
                <path d="M43.7966,12.6832 L39.6536,12.6832 L40.0686,9.9092 L44.2116,9.9092 L43.7966,12.6832 Z M41.3526,28.9722 L37.2106,28.9722 L39.1896,15.7502 L43.3316,15.7502 L41.3526,28.9722 Z" id="Fill-8" fill="#FFFFFF"></path>
                <path d="M51.1042,12.4625 L50.6032,15.7505 L52.6922,15.7505 L52.2642,18.6095 L50.1752,18.6095 L49.2702,24.6705 C49.1892,25.1675 49.2282,25.5135 49.3862,25.7095 C49.5452,25.9045 49.7922,26.0025 50.1262,26.0025 C50.3302,26.0025 50.5002,25.9945 50.6392,25.9785 C50.7782,25.9625 50.9452,25.9295 51.1402,25.8805 L50.9582,28.9355 C50.5332,29.0415 50.1502,29.1165 49.8082,29.1615 C49.4662,29.2065 49.0672,29.2285 48.6112,29.2285 C47.2992,29.2285 46.3332,28.8625 45.7142,28.1295 C45.0952,27.3965 44.9042,26.2515 45.1402,24.6945 L46.0442,18.6095 L44.2002,18.6095 L44.6262,15.7505 L46.4722,15.7505 L46.9732,12.4625 L51.1042,12.4625 Z" id="Fill-10" fill="#FFFFFF"></path>
                <path d="M57.8494,26.2838 C58.3294,26.2838 58.7884,26.1638 59.2244,25.9238 C59.6604,25.6828 59.9794,25.3998 60.1844,25.0738 L60.4404,23.3398 L58.7784,23.3398 C58.1514,23.3398 57.6584,23.4998 57.2994,23.8208 C56.9414,24.1428 56.7254,24.5448 56.6524,25.0248 C56.5954,25.4158 56.6784,25.7238 56.9024,25.9478 C57.1264,26.1718 57.4424,26.2838 57.8494,26.2838 Z M60.3544,28.9608 C60.2484,28.6828 60.1654,28.3698 60.1044,28.0188 C60.0424,27.6688 60.0124,27.3028 60.0124,26.9198 C59.5484,27.6198 59.0224,28.1798 58.4364,28.5988 C57.8494,29.0188 57.1324,29.2278 56.2864,29.2278 C54.9494,29.2278 53.9394,28.8688 53.2544,28.1468 C52.5704,27.4268 52.3184,26.4598 52.4964,25.2458 C52.7014,23.8848 53.3404,22.8598 54.4154,22.1718 C55.4914,21.4828 57.0424,21.1388 59.0724,21.1388 L60.7704,21.1388 L60.9164,20.1978 C60.9974,19.6118 60.9294,19.1738 60.7084,18.8848 C60.4894,18.5958 60.0984,18.4508 59.5364,18.4508 C59.0724,18.4508 58.7014,18.5648 58.4244,18.7938 C58.1464,19.0208 57.9754,19.3668 57.9104,19.8318 L53.9024,19.8198 L53.8904,19.7458 C54.0294,18.4918 54.6824,17.4708 55.8514,16.6848 C57.0214,15.8988 58.4854,15.5058 60.2454,15.5058 C61.8254,15.5058 63.0754,15.9178 63.9964,16.7398 C64.9164,17.5628 65.2634,18.7228 65.0354,20.2218 L64.2894,25.2088 C64.1754,25.9328 64.1344,26.5878 64.1664,27.1698 C64.2004,27.7528 64.2894,28.3528 64.4364,28.9718 L60.3544,28.9608 Z" id="Fill-12" fill="#FFFFFF"></path>
                <polygon id="Fill-14" fill="#FFFFFF" points="70.3132 28.9723 66.1702 28.9723 69.0302 9.9093 73.1722 9.9093"></polygon>
                <path d="M89.4744,24.5357 C89.5794,23.8107 89.4254,23.2717 89.0094,22.9167 C88.5954,22.5627 87.7874,22.1617 86.5904,21.7137 C84.4804,21.0207 82.9004,20.1977 81.8494,19.2447 C80.7984,18.2917 80.3834,17.0907 80.6024,15.6397 C80.8234,14.1817 81.5904,13.0317 82.9064,12.1877 C84.2214,11.3457 85.8084,10.9237 87.6654,10.9237 C89.6864,10.9237 91.2714,11.4077 92.4194,12.3777 C93.5684,13.3477 93.9954,14.6797 93.7024,16.3727 L93.6784,16.4467 L89.6584,16.4467 C89.7554,15.7467 89.5744,15.1807 89.1144,14.7477 C88.6544,14.3157 88.0124,14.1007 87.1894,14.1007 C86.5864,14.1007 86.0444,14.2477 85.5644,14.5407 C85.0824,14.8337 84.8104,15.1917 84.7454,15.6157 C84.6474,16.2747 84.8304,16.7677 85.2944,17.0947 C85.7594,17.4207 86.7454,17.8487 88.2524,18.3777 C90.1744,19.0057 91.6054,19.7997 92.5414,20.7607 C93.4784,21.7217 93.8324,22.9727 93.6044,24.5127 C93.3684,26.0357 92.6054,27.2017 91.3144,28.0137 C90.0224,28.8237 88.4234,29.2277 86.5174,29.2277 C84.5624,29.2277 82.9064,28.7847 81.5494,27.8967 C80.1944,27.0087 79.6784,25.6367 80.0034,23.7787 L80.0284,23.7047 L84.0374,23.7047 C83.8984,24.5777 84.1364,25.1857 84.7514,25.5317 C85.3674,25.8787 86.1144,26.0517 86.9944,26.0517 C87.5964,26.0517 88.1444,25.9067 88.6374,25.6177 C89.1304,25.3287 89.4094,24.9687 89.4744,24.5357" id="Fill-16" fill="#FFFFFF"></path>
                <polygon id="Fill-18" fill="#FFFFFF" points="98.8845 28.9723 94.7415 28.9723 96.7215 15.7503 100.8635 15.7503"></polygon>
                <g id="Group-22" transform="translate(101.000000, 15.312000)">
                    <mask id="mask-4" fill="white">
                        <use xlink:href="#path-3"></use>
                    </mask>
                    <g id="Clip-21"></g>
                    <path d="M4.9226,7.3302 C4.7516,8.4382 4.7776,9.2832 5.0016,9.8662 C5.2266,10.4482 5.7166,10.7392 6.4746,10.7392 C6.9146,10.7392 7.3076,10.6662 7.6536,10.5192 C7.9996,10.3732 8.2946,10.1522 8.5396,9.8592 L9.3706,4.3492 C9.2156,4.0302 8.9916,3.7882 8.6986,3.6212 C8.4046,3.4542 8.0386,3.3712 7.5986,3.3712 C6.8986,3.3712 6.3236,3.7152 5.8756,4.4032 C5.4276,5.0922 5.1216,5.9822 4.9596,7.0732 L4.9226,7.3302 Z M0.8416,7.0732 C1.1586,4.9392 1.8556,3.2592 2.9306,2.0322 C4.0066,0.8072 5.3706,0.1932 7.0246,0.1932 C7.6996,0.1932 8.2766,0.3642 8.7536,0.7072 C9.2306,1.0492 9.6186,1.5342 9.9206,2.1612 L10.4576,0.4382 L14.0996,0.4382 L12.1446,13.5142 C11.8676,15.3222 11.0686,16.6882 9.7496,17.6132 C8.4296,18.5382 6.7106,19.0002 4.5926,19.0002 C3.9326,19.0002 3.2326,18.9062 2.4906,18.7192 C1.7496,18.5312 1.0686,18.2792 0.4496,17.9622 L1.6236,14.9062 C2.1766,15.1672 2.7146,15.3602 3.2356,15.4872 C3.7576,15.6132 4.3676,15.6762 5.0686,15.6762 C5.9156,15.6762 6.5886,15.4992 7.0856,15.1442 C7.5826,14.7902 7.8876,14.2382 8.0016,13.4892 L8.1486,12.4752 C7.6996,12.9472 7.2116,13.3062 6.6826,13.5512 C6.1516,13.7952 5.5736,13.9162 4.9466,13.9162 C3.3836,13.9162 2.2256,13.3062 1.4776,12.0842 C0.7276,10.8622 0.5026,9.2772 0.8046,7.3302 L0.8416,7.0732 Z" id="Fill-20" fill="#FFFFFF" mask="url(#mask-4)"></path>
                </g>
                <path d="M121.1492,17.5465 C121.6782,16.8955 122.2872,16.3915 122.9762,16.0375 C123.6642,15.6835 124.3992,15.5055 125.1812,15.5055 C126.4272,15.5055 127.3602,15.9495 127.9802,16.8385 C128.5982,17.7265 128.7702,19.1185 128.4932,21.0165 L127.2952,28.9725 L123.1652,28.9725 L124.3632,21.0045 C124.4932,20.1335 124.4512,19.5275 124.2342,19.1905 C124.0182,18.8525 123.6502,18.6835 123.1282,18.6835 C122.6972,18.6835 122.2942,18.7645 121.9192,18.9275 C121.5442,19.0905 121.2142,19.3155 120.9292,19.5995 L119.5242,28.9725 L115.4062,28.9725 L117.3852,15.7505 L121.2582,15.7505 L121.1492,17.5465 Z" id="Fill-23" fill="#FFFFFF"></path>
                <path d="M134.6765,26.2838 C135.1565,26.2838 135.6145,26.1638 136.0505,25.9238 C136.4875,25.6828 136.8065,25.3998 137.0105,25.0738 L137.2665,23.3398 L135.6055,23.3398 C134.9775,23.3398 134.4845,23.4998 134.1265,23.8208 C133.7675,24.1428 133.5515,24.5448 133.4785,25.0248 C133.4215,25.4158 133.5055,25.7238 133.7295,25.9478 C133.9525,26.1718 134.2695,26.2838 134.6765,26.2838 Z M137.1815,28.9608 C137.0745,28.6828 136.9915,28.3698 136.9305,28.0188 C136.8695,27.6688 136.8385,27.3028 136.8385,26.9198 C136.3745,27.6198 135.8495,28.1798 135.2625,28.5988 C134.6765,29.0188 133.9595,29.2278 133.1125,29.2278 C131.7765,29.2278 130.7655,28.8688 130.0815,28.1468 C129.3975,27.4268 129.1445,26.4598 129.3235,25.2458 C129.5275,23.8848 130.1675,22.8598 131.2425,22.1718 C132.3185,21.4828 133.8695,21.1388 135.8985,21.1388 L137.5975,21.1388 L137.7435,20.1978 C137.8245,19.6118 137.7555,19.1738 137.5355,18.8848 C137.3165,18.5958 136.9245,18.4508 136.3625,18.4508 C135.8985,18.4508 135.5275,18.5648 135.2505,18.7938 C134.9735,19.0208 134.8025,19.3668 134.7375,19.8318 L130.7295,19.8198 L130.7165,19.7458 C130.8555,18.4918 131.5095,17.4708 132.6785,16.6848 C133.8475,15.8988 135.3115,15.5058 137.0715,15.5058 C138.6525,15.5058 139.9025,15.9178 140.8225,16.7398 C141.7425,17.5628 142.0895,18.7228 141.8615,20.2218 L141.1155,25.2088 C141.0015,25.9328 140.9605,26.5878 140.9935,27.1698 C141.0265,27.7528 141.1155,28.3528 141.2635,28.9718 L137.1815,28.9608 Z" id="Fill-25" fill="#FFFFFF"></path>
                <polygon id="Fill-27" fill="#FFFFFF" points="147.1404 28.9723 142.9974 28.9723 145.8574 9.9093 149.9994 9.9093"></polygon>
                <g id="Group-31" transform="translate(88.000000, 0.312000)">
                    <mask id="mask-6" fill="white">
                        <use xlink:href="#path-5"></use>
                    </mask>
                    <g id="Clip-30"></g>
                    <path d="M21.3054,6.7023 C21.2724,6.8233 21.2554,6.9523 21.2014,7.0633 C20.8934,7.7053 20.0204,7.7653 19.6094,7.1823 C19.3664,6.8383 19.1244,6.4893 18.8564,6.1643 C18.1974,5.3643 17.4234,4.6873 16.5514,4.1273 C15.6654,3.5573 14.7124,3.1363 13.6944,2.8673 C12.7664,2.6223 11.8234,2.5143 10.8634,2.5373 C9.2634,2.5763 7.7574,2.9733 6.3484,3.7293 C5.1804,4.3573 4.1704,5.1833 3.3314,6.2103 C3.0754,6.5253 2.8424,6.8603 2.6104,7.1943 C2.3914,7.5063 2.0334,7.6653 1.6604,7.5953 C1.2964,7.5263 1.0244,7.2453 0.9344,6.8763 C0.8694,6.6093 0.9284,6.3783 1.0744,6.1563 C1.8804,4.9213 2.8764,3.8643 4.0684,2.9953 C5.4134,2.0133 6.9004,1.3373 8.5274,0.9743 C9.2504,0.8143 9.9814,0.7233 10.7214,0.6993 C10.7514,0.6983 10.7814,0.6913 10.8104,0.6873 L11.4034,0.6873 C11.4354,0.6913 11.4674,0.6983 11.5004,0.6993 C12.0874,0.7173 12.6694,0.7793 13.2474,0.8843 C14.5514,1.1193 15.7814,1.5603 16.9364,2.2083 C18.4884,3.0793 19.7844,4.2373 20.8244,5.6823 C21.0324,5.9713 21.2814,6.2433 21.3054,6.6273 L21.3054,6.7023 Z" id="Fill-29" fill="#FF632E" mask="url(#mask-6)"></path>
                </g>
                <path d="M99.0378,4.6822 C101.0908,4.7052 102.8508,5.3312 104.3848,6.5832 C105.1908,7.2422 105.8448,8.0302 106.3568,8.9352 C106.6118,9.3872 106.4528,9.9422 105.9958,10.1982 C105.5618,10.4412 105.0028,10.2802 104.7538,9.8412 C104.0738,8.6412 103.1138,7.7402 101.8698,7.1442 C101.3068,6.8742 100.7138,6.6972 100.0958,6.6022 C99.5438,6.5182 98.9908,6.5002 98.4378,6.5612 C97.1428,6.7032 95.9888,7.1862 94.9838,8.0192 C94.3718,8.5272 93.8718,9.1282 93.4828,9.8222 C93.3298,10.0952 93.1048,10.2632 92.7958,10.3192 C92.3178,10.4042 91.8098,10.0382 91.7518,9.5572 C91.7228,9.3152 91.7748,9.0892 91.8998,8.8742 C92.3728,8.0652 92.9548,7.3492 93.6618,6.7342 C94.4268,6.0682 95.2828,5.5582 96.2328,5.2032 C96.8988,4.9532 97.5868,4.7942 98.2948,4.7272 C98.5658,4.7012 98.8398,4.6942 99.0378,4.6822" id="Fill-32" fill="#FF632E"></path>
                <path d="M99.364,8.3707 C100.529,8.4197 101.649,8.9237 102.548,9.9087 C102.851,10.2417 103.093,10.6167 103.288,11.0217 C103.561,11.5947 103.203,12.2587 102.576,12.3427 C102.189,12.3937 101.804,12.1877 101.635,11.8287 C101.407,11.3497 101.081,10.9547 100.635,10.6637 C100.068,10.2927 99.443,10.1427 98.771,10.2327 C97.784,10.3647 97.064,10.8847 96.619,11.7757 C96.449,12.1167 96.188,12.3247 95.805,12.3427 C95.1,12.3757 94.631,11.6477 94.947,11.0077 C95.605,9.6737 96.663,8.8297 98.109,8.4787 C98.467,8.3917 98.833,8.3607 99.364,8.3707" id="Fill-34" fill="#FF632E"></path>
                <path d="M99.1162,11.5884 C99.8752,11.5914 100.4962,12.2144 100.4952,12.9724 C100.4942,13.7364 99.8702,14.3534 99.0972,14.3504 C98.3452,14.3484 97.7312,13.7254 97.7322,12.9654 C97.7332,12.2074 98.3572,11.5864 99.1162,11.5884 Z" id="Fill-36" fill="#FF632E"></path>
            </g>
        </g>
    </g>
</svg>